<svg width="11" height="11" viewBox="0 0 11 11" fill="none" xmlns="http://www.w3.org/2000/svg">
<path d="M10.7617 4.06426H6.98081L5.72815 0.164484C5.69589 0.0663378 5.60426 0 5.50096 0C5.39765 0 5.30602 0.0663378 5.27376 0.164484L4.02015 4.06426H0.239207C0.136916 4.06425 0.045938 4.12929 0.0128618 4.22609C-0.0202143 4.32289 0.0119355 4.43002 0.0928482 4.4926L3.10899 6.82755L1.85394 10.6869C1.82191 10.7855 1.85698 10.8934 1.94082 10.9543C2.02465 11.0152 2.13817 11.0152 2.22199 10.9543L5.50048 8.57247L8.77897 10.9543C8.86278 11.0152 8.9763 11.0152 9.06014 10.9543C9.14397 10.8934 9.17905 10.7855 9.14702 10.6869L7.89196 6.82755L10.9071 4.4926C10.9879 4.43012 11.0201 4.32325 10.9873 4.22654C10.9545 4.12984 10.8639 4.06465 10.7617 4.06426Z" fill="#131313"/>
</svg>
